<!DOCTYPE svg PUBLIC "-//W3C//DTD SVG 1.1//EN" "http://www.w3.org/Graphics/SVG/1.1/DTD/svg11.dtd">
<!-- Uploaded to: SVG Repo, www.svgrepo.com, Transformed by: SVG Repo Mixer Tools -->
<svg height="800px" width="800px" version="1.1" id="Layer_1" xmlns="http://www.w3.org/2000/svg" xmlns:xlink="http://www.w3.org/1999/xlink" viewBox="0 0 512 512" xml:space="preserve" fill="#000000">
<g id="SVGRepo_bgCarrier" stroke-width="0"/>
<g id="SVGRepo_tracerCarrier" stroke-linecap="round" stroke-linejoin="round"/>
<g id="SVGRepo_iconCarrier"> <path style="fill:#14ebff;" d="M140.8,435.2c-70.579,0-128-57.421-128-128c0-67.311,52.233-122.65,118.281-127.633 C142.925,120.243,194.782,76.8,256,76.8s113.075,43.443,124.919,102.767C446.967,184.55,499.2,239.889,499.2,307.2 c0,70.579-57.421,128-128,128H140.8z"/> <path style="fill:#14ebff;" d="M140.8,448h230.4c77.636,0,140.8-63.164,140.8-140.8c0-70.818-52.54-129.587-120.695-139.366 C374.98,107.349,320.162,64,256,64s-118.972,43.349-135.305,103.834C52.54,177.613,0,236.382,0,307.2 C0,384.836,63.164,448,140.8,448z M140.8,192c0.435,0,0.845,0.119,1.28,0.128C148.463,134.545,196.719,89.6,256,89.6 s107.537,44.945,113.92,102.528c0.435-0.009,0.845-0.128,1.28-0.128c63.625,0,115.2,51.575,115.2,115.2s-51.575,115.2-115.2,115.2 c-59.281,0-171.119,0-230.4,0c-63.625,0-115.2-51.575-115.2-115.2S77.175,192,140.8,192z"/> </g>
</svg>